<?xml version="1.0"?>
<svg xmlns="http://www.w3.org/2000/svg" height="512px" viewBox="0 0 512 512" width="512px"><g><path d="m432 512c-8.832031 0-16-7.167969-16-16v-373.332031c0-14.699219-11.96875-26.667969-26.667969-26.667969h-373.332031c-8.832031 0-16-7.167969-16-16s7.167969-16 16-16h373.332031c32.363281 0 58.667969 26.304688 58.667969 58.667969v373.332031c0 8.832031-7.167969 16-16 16zm0 0" data-original="#000000" class="active-path" data-old_color="#000000" fill="#FFFFFF"/><path d="m496 448h-373.332031c-32.363281 0-58.667969-26.304688-58.667969-58.667969v-373.332031c0-8.832031 7.167969-16 16-16s16 7.167969 16 16v373.332031c0 14.699219 11.96875 26.667969 26.667969 26.667969h373.332031c8.832031 0 16 7.167969 16 16s-7.167969 16-16 16zm0 0" data-original="#000000" class="active-path" data-old_color="#000000" fill="#FFFFFF"/><path d="m170.667969 234.667969c-23.53125 0-42.667969-19.136719-42.667969-42.667969s19.136719-42.667969 42.667969-42.667969 42.664062 19.136719 42.664062 42.667969-19.132812 42.667969-42.664062 42.667969zm0-53.335938c-5.867188 0-10.667969 4.78125-10.667969 10.667969s4.800781 10.667969 10.667969 10.667969c5.867187 0 10.664062-4.78125 10.664062-10.667969s-4.796875-10.667969-10.664062-10.667969zm0 0" data-original="#000000" class="active-path" data-old_color="#000000" fill="#FFFFFF"/><path d="m80 384c-4.097656 0-8.191406-1.558594-11.308594-4.691406-6.25-6.253906-6.25-16.386719 0-22.636719l54.1875-54.1875c14.59375-14.589844 38.335938-14.589844 52.90625 0l26.882813 26.882813 101.546875-101.546876c14.078125-14.082031 38.824218-14.101562 52.90625 0l86.1875 86.183594c6.25 6.253906 6.25 16.386719 0 22.636719-6.253906 6.25-16.386719 6.25-22.636719 0l-86.1875-86.1875c-2.707031-2.710937-4.949219-2.6875-7.65625 0l-112.855469 112.875c-6.25 6.25-16.382812 6.25-22.632812 0l-38.1875-38.1875c-2.089844-2.089844-5.589844-2.089844-7.660156 0l-54.183594 54.1875c-3.117188 3.113281-7.210938 4.671875-11.308594 4.671875zm0 0" data-original="#000000" class="active-path" data-old_color="#000000" fill="#FFFFFF"/></g> </svg>
