<svg id="Capa_1" enable-background="new 0 0 512 512" height="512" viewBox="0 0 512 512" width="512" xmlns="http://www.w3.org/2000/svg"><g><path d="m207.587 55.913c-110.505 0-200.087 89.582-200.087 200.087s89.582 200.087 200.087 200.087 200.087-89.582 200.087-200.087-89.582-200.087-200.087-200.087zm0 238.111c-21 0-38.024-17.024-38.024-38.024s17.024-38.024 38.024-38.024 38.024 17.024 38.024 38.024-17.024 38.024-38.024 38.024z" fill="#756e78"/><path d="m385.126 348.339c14.398-27.627 22.548-59.029 22.548-92.339 0-35.303-8.099-62.558-22.378-92.016-33.311-64.202-100.383-108.071-177.709-108.071-4.623 0-9.205.171-13.75.479 66.947 4.545 124.856 42.015 157.661 96.347 2.982 4.939-.587 11.245-6.357 11.245-12.576 0-22.771 10.195-22.771 22.771v98.616c0 8.533-5.37 16.101-13.382 19.035-21.39 7.832-37 28.279-37.507 52.208-.313 14.727 5.061 28.845 15.129 39.753.058.063.116.126.175.188 8.803 9.453 6.951 24.625-4.134 31.256-26.295 15.732-56.499 25.602-88.814 27.796 4.545.309 9.127.479 13.75.479 45.892 0 88.166-15.461 121.923-41.443 8.949-6.888 17.082-14.361 24.161-21.936 16.36-17.474 23.022-29.523 31.455-44.368z" fill="#665e66"/><path d="m207.587 159.737c-53.164 0-96.263 43.098-96.263 96.263 0 53.164 43.098 96.263 96.263 96.263s96.263-43.098 96.263-96.263-43.098-96.263-96.263-96.263zm0 134.287c-21 0-38.024-17.024-38.024-38.024s17.024-38.024 38.024-38.024 38.024 17.024 38.024 38.024-17.024 38.024-38.024 38.024z" fill="#e28086"/><g fill="#dd636e"><path d="m207.587 159.737c-4.463 0-8.853.311-13.155.899 46.94 6.416 83.108 46.663 83.108 95.364s-36.168 88.949-83.108 95.364c4.302.588 8.692.899 13.155.899 53.165 0 96.263-43.098 96.263-96.263s-43.098-96.263-96.263-96.263z"/><path d="m194.432 220.315c-4.1-1.512-8.53-2.339-13.155-2.339-21 0-38.024 17.024-38.024 38.024s17.024 38.024 38.024 38.024c4.625 0 9.055-.827 13.155-2.339-14.516-5.353-24.869-19.309-24.869-35.685s10.353-30.331 24.869-35.685z"/></g><path d="m338.371 186.755v125.792c0 2.844-2.474 5.076-5.298 4.738-23.594-2.827-45.081 15.371-45.596 39.668-.463 21.837 16.675 40.442 38.483 41.657 23.609 1.315 43.165-17.441 43.165-40.764v-117.305c0-3.739 3.031-6.77 6.77-6.77h91.078c3.739 0 6.77 3.031 6.77 6.77v126.088c0 2.844-2.474 5.076-5.298 4.738-23.594-2.827-45.081 15.371-45.596 39.668-.463 21.837 16.675 40.442 38.483 41.657 23.609 1.315 43.165-17.441 43.165-40.764v-225.173c0-3.739-3.031-6.77-6.77-6.77h-152.585c-3.74-.001-6.771 3.031-6.771 6.77z" fill="#ecbe6b"/><g fill="#eab14d"><path d="m351.092 240.541v117.305c0 19.447-13.601 35.708-31.806 39.817 2.166.492 4.393.82 6.675.947 23.609 1.315 43.165-17.441 43.165-40.764v-117.305c0-3.739 3.031-6.77 6.77-6.77h-18.034c-3.739 0-6.77 3.031-6.77 6.77z"/><path d="m497.73 179.984h-18.034c3.739 0 6.77 3.031 6.77 6.77v225.173c0 19.447-13.601 35.708-31.806 39.817 2.166.492 4.393.82 6.675.947 23.609 1.315 43.165-17.441 43.165-40.764v-225.172c0-3.739-3.031-6.771-6.77-6.771z"/></g><g><path d="m225.722 358.18c49.616-8.75 85.628-51.724 85.628-102.18 0-57.215-46.548-103.763-103.763-103.763s-103.763 46.548-103.763 103.763c0 25.238 9.17 49.562 25.819 68.493 16.495 18.754 39.144 30.937 63.772 34.303.345.047.687.07 1.025.07 3.69 0 6.907-2.726 7.421-6.485.562-4.104-2.311-7.886-6.415-8.446-43.683-5.971-76.623-43.774-76.623-87.934 0-48.944 39.818-88.763 88.763-88.763s88.764 39.818 88.764 88.762c0 43.164-30.799 79.924-73.233 87.409-4.079.719-6.803 4.609-6.083 8.688.719 4.08 4.609 6.806 8.688 6.083z"/><path d="m253.111 256c0-25.102-20.422-45.524-45.524-45.524s-45.523 20.422-45.523 45.524 20.422 45.524 45.523 45.524c25.102 0 45.524-20.422 45.524-45.524zm-45.524 30.524c-16.831 0-30.523-13.693-30.523-30.524s13.692-30.524 30.523-30.524 30.524 13.693 30.524 30.524c0 16.83-13.693 30.524-30.524 30.524z"/><path d="m504.5 312.971c4.143 0 7.5-3.357 7.5-7.5v-118.716c0-7.869-6.401-14.271-14.27-14.271h-100.049c-32.66-74.298-106.447-124.071-190.094-124.071-32.735 0-64.075 7.415-93.148 22.038-3.7 1.861-5.191 6.37-3.33 10.07 1.86 3.7 6.368 5.19 10.07 3.33 26.963-13.562 56.035-20.438 86.408-20.438 76.759 0 142.674 44.835 173.587 109.071h-36.032c-7.869 0-14.271 6.402-14.271 14.271v122.815c-12.433-.665-24.764 3.548-34.273 11.806-10.272 8.923-16.33 21.832-16.618 35.419-.558 26.346 20.919 49.215 48.032 49.378-33.004 26.519-74.89 42.415-120.425 42.415-106.192-.001-192.587-86.395-192.587-192.588 0-62.203 30.3-120.902 81.052-157.02 3.375-2.401 4.164-7.084 1.762-10.459-2.401-3.375-7.083-4.165-10.459-1.762-54.645 38.888-87.355 101.625-87.355 169.241 0 114.464 93.123 207.587 207.587 207.587s207.587-93.123 207.587-207.587c0-4.904-.192-9.83-.536-14.729h51.607v122.38c-27.089-1.449-50.312 19.885-50.892 47.225-.902 42.538 50.395 65.61 81.522 36.168 9.611-9.091 15.124-21.891 15.124-35.116v-76.471c0-4.143-3.357-7.5-7.5-7.5s-7.5 3.357-7.5 7.5v76.471c0 19.051-15.918 34.345-35.248 33.275-17.691-.985-31.778-16.241-31.402-34.009.43-20.195 18.322-34.641 37.206-32.38 7.292.873 13.689-4.86 13.689-12.186v-126.087c0-7.869-6.401-14.27-14.271-14.27-8.12 0-80.467 0-91.078 0-7.869 0-14.271 6.401-14.271 14.27v117.305c0 9.255-3.705 17.856-10.432 24.219-6.721 6.357-15.525 9.569-24.816 9.057-17.691-.985-31.778-16.242-31.402-34.009.202-9.5 4.271-18.17 11.458-24.412 7.108-6.173 16.497-9.075 25.748-7.968 3.457.415 6.945-.677 9.559-2.997 2.625-2.33 4.131-5.679 4.131-9.188v-125.064h151.13v117.987c0 4.143 3.357 7.5 7.5 7.5zm-104.896-71.7c.369 4.893.569 9.823.569 14.729 0 33.382-8.542 64.804-23.548 92.204v-106.933z"/></g></g></svg>