<svg id="Capa_1" enable-background="new 0 0 499.999 499.999" height="512" viewBox="0 0 499.999 499.999" width="512" xmlns="http://www.w3.org/2000/svg"><path d="m379.577 160.827c-2.93 2.93-4.578 6.897-4.578 11.047v125.399c-13.098-9.914-29.221-16.024-46.875-16.024-43.076 0-78.125 35.049-78.125 78.125s35.049 78.125 78.125 78.125 78.125-35.049 78.125-78.125v-171.874h93.75v-31.235l-109.375-.015c-4.15 0-8.118 1.648-11.047 4.577zm-51.453 245.422c-25.848 0-46.875-21.027-46.875-46.875s21.027-46.875 46.875-46.875 46.875 21.027 46.875 46.875c0 25.849-21.026 46.875-46.875 46.875z"/><path d="m0 62.5h499.999v31.25h-499.999z"/><path d="m0 156.25h312.499v31.25h-312.499z"/><path id="path-1_5_" d="m0 249.999h218.75v31.25h-218.75z" transform="translate(0 8)"/><path id="path-1_4_" d="m0 343.749h218.75v31.25h-218.75z" transform="translate(0 11)"/></svg>