<svg height="512pt" viewBox="0 -32 512 511" width="512pt" xmlns="http://www.w3.org/2000/svg"><path d="m8.007812 7.507812h384.375v384.375h-384.375zm0 0" fill="#e8f4fa"/><path d="m8.007812 71.570312h24.023438v320.3125h-24.023438zm0 0" fill="#c0dceb"/><path d="m40.039062 279.773438h80.078126v80.078124h-80.078126zm0 0" fill="#8ae0ff"/><path d="m8.007812 7.507812h384.375v64.0625h-384.375zm0 0" fill="#95a8b8"/><path d="m8.007812 7.507812h24.023438v64.0625h-24.023438zm0 0" fill="#5b788c"/><g fill="#fff"><path d="m40.039062 32.03125h16.015626v15.015625h-16.015626zm0 0"/><path d="m72.070312 32.03125h16.015626v15.015625h-16.015626zm0 0"/><path d="m104.101562 32.03125h16.015626v15.015625h-16.015626zm0 0"/></g><path d="m504.492188 343.835938c0 53.070312-43.023438 96.09375-96.09375 96.09375-53.070313 0-96.09375-43.023438-96.09375-96.09375 0-53.070313 43.023437-96.09375 96.09375-96.09375 53.070312 0 96.09375 43.023437 96.09375 96.09375zm0 0" fill="#ff6242"/><path d="m472.460938 343.835938c0 35.378906-28.679688 64.0625-64.0625 64.0625-35.378907 0-64.0625-28.683594-64.0625-64.0625 0-35.382813 28.683593-64.0625 64.0625-64.0625 35.382812 0 64.0625 28.679687 64.0625 64.0625zm0 0" fill="#fff"/><path d="m127.125 367.859375v-95.09375h-95.09375v95.09375zm-80.078125-80.078125h65.0625v65.0625h-65.0625zm0 0"/><path d="m15.015625 95.59375h-15.015625v304.296875h296.289062v-15.015625h-281.273437zm0 0"/><path d="m384.375 223.71875h15.015625v-223.21875h-399.390625v79.078125h384.375zm-369.359375-159.15625v-49.046875h369.359375v49.046875zm0 0"/><path d="m32.03125 232.726562h320.3125v15.015626h-320.3125zm0 0"/><path d="m144.140625 312.804688h144.140625v15.015624h-144.140625zm0 0"/><path d="m144.140625 272.765625h160.15625v15.015625h-160.15625zm0 0"/><path d="m144.140625 352.84375h144.140625v15.015625h-144.140625zm0 0"/><path d="m64.0625 103.601562v64.0625h64.0625v40.039063h15.015625v-104.101563h-15.015625v49.046876h-49.046875v-49.046876zm0 0"/><path d="m256.25 103.601562v64.0625h64.0625v40.039063h15.015625v-104.101563h-15.015625v49.046876h-49.046875v-49.046876zm0 0"/><path d="m160.15625 104.601562v103.101563h79.078125v-103.101563zm64.0625 88.085938h-49.046875v-73.070312h49.046875zm0 0"/><path d="m408.398438 240.234375c-57.125 0-103.601563 46.476563-103.601563 103.601563s46.476563 103.601562 103.601563 103.601562 103.601562-46.476562 103.601562-103.601562-46.476562-103.601563-103.601562-103.601563zm0 192.1875c-48.847657 0-88.585938-39.738281-88.585938-88.585937 0-48.847657 39.738281-88.585938 88.585938-88.585938 48.847656 0 88.585937 39.738281 88.585937 88.585938 0 48.847656-39.738281 88.585937-88.585937 88.585937zm0 0"/><path d="m408.398438 272.265625c-39.464844 0-71.570313 32.105469-71.570313 71.570313 0 39.460937 32.105469 71.570312 71.570313 71.570312 39.464843 0 71.570312-32.109375 71.570312-71.570312 0-39.464844-32.105469-71.570313-71.570312-71.570313zm0 128.125c-31.183594 0-56.554688-25.371094-56.554688-56.554687 0-31.183594 25.371094-56.554688 56.554688-56.554688 31.183593 0 56.554687 25.371094 56.554687 56.554688 0 31.183593-25.371094 56.554687-56.554687 56.554687zm0 0"/><path d="m400.390625 303.796875h15.015625v48.046875h-15.015625zm0 0"/><path d="m400.390625 367.859375h15.015625v16.015625h-15.015625zm0 0"/></svg>