<svg width="24" height="24" xmlns="http://www.w3.org/2000/svg">

 <g>
  <title>background</title>
  <rect fill="none" id="canvas_background" height="402" width="582" y="-1" x="-1"/>
 </g>
 <g>
  <title>Layer 1</title>
  <path fill="#ffffff" id="svg_1" d="m12.1,18.55l-0.1,0.1l-0.11,-0.1c-4.75,-4.31 -7.89,-7.16 -7.89,-10.05c0,-2 1.5,-3.5 3.5,-3.5c1.54,0 3.04,1 3.57,2.36l1.86,0c0.53,-1.36 2.03,-2.36 3.57,-2.36c2,0 3.5,1.5 3.5,3.5c0,2.89 -3.14,5.74 -7.9,10.05m4.4,-15.55c-1.74,0 -3.41,0.81 -4.5,2.08c-1.09,-1.27 -2.76,-2.08 -4.5,-2.08c-3.08,0 -5.5,2.41 -5.5,5.5c0,3.77 3.4,6.86 8.55,11.53l1.45,1.32l1.45,-1.32c5.15,-4.67 8.55,-7.76 8.55,-11.53c0,-3.09 -2.42,-5.5 -5.5,-5.5z"/>
 </g>
</svg>