<svg width="700" height="700" xmlns="http://www.w3.org/2000/svg">

 <g>
  <title>background</title>
  <rect fill="#e5e8fc" id="canvas_background" height="702" width="702" y="-1" x="-1"/>
 </g>
 <g class="layer">
  <title>Layer 1</title>
  <g id="svg_1">
   <g id="svg_2">
    <g id="svg_3">
     <path id="svg_4" fill="black" d="m506,139.667l-341.333,0c-23.532,0 -42.667,19.145 -42.667,42.666l0,341.333c0,23.521 19.135,42.667 42.667,42.667l341.333,0c23.531,0 42.667,-19.146 42.667,-42.667l0,-341.333c0,-23.521 -19.136,-42.666 -42.667,-42.666zm21.333,384c0,11.771 -9.573,21.333 -21.333,21.333l-341.333,0c-11.76,0 -21.333,-9.563 -21.333,-21.333l0,-341.334c-0.001,-11.771 9.572,-21.333 21.333,-21.333l341.333,0c11.76,0 21.333,9.563 21.333,21.333l0,341.334z"/>
     <path id="svg_5" d="m548.667,97l-352,0c-5.896,0 -10.667,4.771 -10.667,10.667s4.771,10.667 10.667,10.667l352,0c11.76,0 21.333,9.563 21.333,21.333l0,352c0,5.896 4.771,10.667 10.667,10.667c5.896,0 10.667,-4.771 10.667,-10.667l0,-352c-0.001,-23.521 -19.136,-42.667 -42.667,-42.667z"/>
     <path id="svg_6" d="m416.896,248.854c-2.385,-2.021 -5.542,-2.917 -8.646,-2.375l-128,21.333c-5.146,0.854 -8.917,5.313 -8.917,10.521l0,139.845c-3.315,-0.714 -6.848,-1.178 -10.667,-1.178c-18.542,0 -32,8.979 -32,21.333s13.458,21.333 32,21.333s32,-8.979 32,-21.333l0,-108.298l106.667,-17.779l0,84.589c-3.315,-0.714 -6.848,-1.178 -10.667,-1.178c-18.542,0 -32,8.979 -32,21.333c0,12.354 13.458,21.333 32,21.333s32,-8.979 32,-21.333l0,-160c0.001,-3.146 -1.374,-6.104 -3.77,-8.146zm-17.563,41.778l-106.666,17.778l0,-21.035l106.667,-17.792l0,21.049l-0.001,0z"/>
    </g>
   </g>
  </g>
  <g id="svg_7"/>
  <g id="svg_8"/>
  <g id="svg_9"/>
  <g id="svg_10"/>
  <g id="svg_11"/>
  <g id="svg_12"/>
  <g id="svg_13"/>
  <g id="svg_14"/>
  <g id="svg_15"/>
  <g id="svg_16"/>
  <g id="svg_17"/>
  <g id="svg_18"/>
  <g id="svg_19"/>
  <g id="svg_20"/>
  <g id="svg_21"/>
 </g>
</svg>